# xmcd
#
# Track frame offsets:
#	150
#	41874
#	55455
#	85011
#	111941
#	161071
#
# Disc length: 2422 seconds
#
# Revision: 1
# Processed by: cddbd v1.5.2PL0 Copyright (c) Steve Scherf et al.
# Submitted via: audiograbber 1.83.01
#
DISCID=4d097406
DTITLE=Grateful Dead - 69-08-23 Pelletier's Farm, St Helens OR
DYEAR=1900
DGENRE=
TTITLE0=Hard To Handle
TTITLE1=Mama Tried
TTITLE2=High Time
TTITLE3=Casey Jones
TTITLE4=Easy Wind
TTITLE5=Sitting On Top Of The World
EXTD=
EXTT0=
EXTT1=
EXTT2=
EXTT3=
EXTT4=
EXTT5=
PLAYORDER=
